{
  "accessors": [
    {
      "bufferView": 2,
      "componentType": 5126,
      "count": 2060,
      "max": [
        89.87734985351563,
        72.40813446044922,
        89.22758483886719
      ],
      "min": [
        -89.87734985351563,
        -72.40813446044922,
        -89.22758483886719
      ],
      "type": "VEC3"
    },
    {
      "bufferView": 2,
      "byteOffset": 24720,
      "componentType": 5126,
      "count": 2060,
      "max": [
        0.9900088906288147,
        0.87480628490448,
        0.9935144186019897
      ],
      "min": [
        -0.9936636090278625,
        -0.8867080211639404,
        -0.9929215312004089
      ],
      "type": "VEC3"
    },
    {
      "bufferView": 3,
      "componentType": 5126,
      "count": 2060,
      "max": [
        0.9919914603233337,
        0.9574360251426697,
        0.9930172562599182,
        -1.0
      ],
      "min": [
        -0.9908061027526855,
        -0.9713073372840881,
        -0.9971417784690857,
        -1.0
      ],
      "type": "VEC4"
    },
    {
      "bufferView": 1,
      "componentType": 5126,
      "count": 2060,
      "max": [
        0.9900040030479431,
        0.976934015750885
      ],
      "min": [
        0.009999999776482582,
        0.010002970695495605
      ],
      "type": "VEC2"
    },
    {
      "bufferView": 0,
      "componentType": 5125,
      "count": 5376,
      "type": "SCALAR"
    },
    {
      "bufferView": 2,
      "byteOffset": 49440,
      "componentType": 5126,
      "count": 65532,
      "max": [
        106.81755828857422,
        112.14337158203125,
        126.05919647216797
      ],
      "min": [
        -105.63908386230469,
        -114.04149627685547,
        -141.16819763183594
      ],
      "type": "VEC3"
    },
    {
      "bufferView": 2,
      "byteOffset": 835824,
      "componentType": 5126,
      "count": 65532,
      "max": [
        0.9999116063117981,
        0.9997870922088623,
        0.9999849796295166
      ],
      "min": [
        -0.9999791383743286,
        -0.999829888343811,
        -0.9999871253967285
      ],
      "type": "VEC3"
    },
    {
      "bufferView": 3,
      "byteOffset": 32960,
      "componentType": 5126,
      "count": 65532,
      "max": [
        0.9999991655349731,
        0.9999809265136719,
        0.9999989867210388,
        1.0
      ],
      "min": [
        -0.999994695186615,
        -0.99998539686203,
        -0.9948887825012207,
        -1.0
      ],
      "type": "VEC4"
    },
    {
      "bufferView": 1,
      "byteOffset": 16480,
      "componentType": 5126,
      "count": 65532,
      "max": [
        0.9995065927505493,
        1.0
      ],
      "min": [
        5.551115123125783e-17,
        0.0
      ],
      "type": "VEC2"
    },
    {
      "bufferView": 0,
      "byteOffset": 21504,
      "componentType": 5125,
      "count": 177912,
      "type": "SCALAR"
    },
    {
      "bufferView": 2,
      "byteOffset": 1622208,
      "componentType": 5126,
      "count": 39087,
      "max": [
        105.46186828613281,
        109.7086410522461,
        115.6689453125
      ],
      "min": [
        -106.81755828857422,
        -99.7832260131836,
        -136.04861450195313
      ],
      "type": "VEC3"
    },
    {
      "bufferView": 2,
      "byteOffset": 2091252,
      "componentType": 5126,
      "count": 39087,
      "max": [
        0.9998661875724792,
        0.9999050498008728,
        0.999984860420227
      ],
      "min": [
        -0.9998685717582703,
        -0.9997797012329102,
        -0.9999700784683228
      ],
      "type": "VEC3"
    },
    {
      "bufferView": 3,
      "byteOffset": 1081472,
      "componentType": 5126,
      "count": 39087,
      "max": [
        0.9999997019767761,
        0.9999946355819702,
        0.999474287033081,
        1.0
      ],
      "min": [
        -0.9999915361404419,
        -0.9999808669090271,
        -0.9975440502166748,
        -1.0
      ],
      "type": "VEC4"
    },
    {
      "bufferView": 1,
      "byteOffset": 540736,
      "componentType": 5126,
      "count": 39087,
      "max": [
        0.9970787167549133,
        0.981270432472229
      ],
      "min": [
        5.551115123125783e-17,
        0.01743018627166748
      ],
      "type": "VEC2"
    },
    {
      "bufferView": 0,
      "byteOffset": 733152,
      "componentType": 5125,
      "count": 106560,
      "type": "SCALAR"
    },
    {
      "bufferView": 2,
      "byteOffset": 2560296,
      "componentType": 5126,
      "count": 2060,
      "max": [
        749.0595092773438,
        72.40813446044922,
        89.22758483886719
      ],
      "min": [
        569.3048095703125,
        -72.40813446044922,
        -89.22758483886719
      ],
      "type": "VEC3"
    },
    {
      "bufferView": 2,
      "byteOffset": 2585016,
      "componentType": 5126,
      "count": 2060,
      "max": [
        0.9900149703025818,
        0.87480628490448,
        0.9935191869735718
      ],
      "min": [
        -0.9936636090278625,
        -0.8867090940475464,
        -0.9929239153862
      ],
      "type": "VEC3"
    },
    {
      "bufferView": 3,
      "byteOffset": 1706864,
      "componentType": 5126,
      "count": 2060,
      "max": [
        0.9919948577880859,
        0.9574408531188965,
        0.9930191040039063,
        -1.0
      ],
      "min": [
        -0.9908064007759094,
        -0.9713114500045776,
        -0.9971432089805603,
        -1.0
      ],
      "type": "VEC4"
    },
    {
      "bufferView": 1,
      "byteOffset": 853432,
      "componentType": 5126,
      "count": 2060,
      "max": [
        0.9900040030479431,
        0.976934015750885
      ],
      "min": [
        0.009999999776482582,
        0.010002970695495605
      ],
      "type": "VEC2"
    },
    {
      "bufferView": 0,
      "byteOffset": 1159392,
      "componentType": 5125,
      "count": 5376,
      "type": "SCALAR"
    },
    {
      "bufferView": 2,
      "byteOffset": 2609736,
      "componentType": 5126,
      "count": 2060,
      "max": [
        440.6158447265625,
        72.40813446044922,
        -65.10000610351563
      ],
      "min": [
        257.84686279296875,
        -72.40813446044922,
        -235.25315856933594
      ],
      "type": "VEC3"
    },
    {
      "bufferView": 2,
      "byteOffset": 2634456,
      "componentType": 5126,
      "count": 2060,
      "max": [
        0.951403021812439,
        0.8748047351837158,
        0.9997948408126831
      ],
      "min": [
        -0.9547932744026184,
        -0.886715292930603,
        -0.9999057650566101
      ],
      "type": "VEC3"
    },
    {
      "bufferView": 3,
      "byteOffset": 1739824,
      "componentType": 5126,
      "count": 2060,
      "max": [
        0.9994332790374756,
        0.9574435949325562,
        0.9999982714653015,
        -1.0
      ],
      "min": [
        -0.9671993851661682,
        -0.9713074564933777,
        -0.99997878074646,
        -1.0
      ],
      "type": "VEC4"
    },
    {
      "bufferView": 1,
      "byteOffset": 869912,
      "componentType": 5126,
      "count": 2060,
      "max": [
        0.9900040030479431,
        0.976934015750885
      ],
      "min": [
        0.009999999776482582,
        0.010002970695495605
      ],
      "type": "VEC2"
    },
    {
      "bufferView": 0,
      "byteOffset": 1180896,
      "componentType": 5125,
      "count": 5376,
      "type": "SCALAR"
    },
    {
      "bufferView": 2,
      "byteOffset": 2659176,
      "componentType": 5126,
      "count": 2060,
      "max": [
        89.87734985351563,
        72.40813446044922,
        89.22758483886719
      ],
      "min": [
        -89.87734985351563,
        -72.40813446044922,
        -89.22758483886719
      ],
      "type": "VEC3"
    },
    {
      "bufferView": 2,
      "byteOffset": 2683896,
      "componentType": 5126,
      "count": 2060,
      "max": [
        0.9900088906288147,
        0.87480628490448,
        0.9935144186019897
      ],
      "min": [
        -0.9936636090278625,
        -0.8867080211639404,
        -0.9929215312004089
      ],
      "type": "VEC3"
    },
    {
      "bufferView": 3,
      "byteOffset": 1772784,
      "componentType": 5126,
      "count": 2060,
      "max": [
        0.9919914603233337,
        0.9574360251426697,
        0.9930172562599182,
        -1.0
      ],
      "min": [
        -0.9908061027526855,
        -0.9713073372840881,
        -0.9971417784690857,
        -1.0
      ],
      "type": "VEC4"
    },
    {
      "bufferView": 1,
      "byteOffset": 886392,
      "componentType": 5126,
      "count": 2060,
      "max": [
        0.9900040030479431,
        0.976934015750885
      ],
      "min": [
        0.009999999776482582,
        0.010002970695495605
      ],
      "type": "VEC2"
    },
    {
      "bufferView": 0,
      "byteOffset": 1202400,
      "componentType": 5125,
      "count": 5376,
      "type": "SCALAR"
    },
    {
      "bufferView": 2,
      "byteOffset": 2708616,
      "componentType": 5126,
      "count": 65532,
      "max": [
        106.81755828857422,
        112.14337158203125,
        126.05919647216797
      ],
      "min": [
        -105.63908386230469,
        -114.04149627685547,
        -141.16819763183594
      ],
      "type": "VEC3"
    },
    {
      "bufferView": 2,
      "byteOffset": 3495000,
      "componentType": 5126,
      "count": 65532,
      "max": [
        0.9999116063117981,
        0.9997870922088623,
        0.9999849796295166
      ],
      "min": [
        -0.9999791383743286,
        -0.999829888343811,
        -0.9999871253967285
      ],
      "type": "VEC3"
    },
    {
      "bufferView": 3,
      "byteOffset": 1805744,
      "componentType": 5126,
      "count": 65532,
      "max": [
        0.9999991655349731,
        0.9999809265136719,
        0.9999989867210388,
        1.0
      ],
      "min": [
        -0.999994695186615,
        -0.99998539686203,
        -0.9948887825012207,
        -1.0
      ],
      "type": "VEC4"
    },
    {
      "bufferView": 1,
      "byteOffset": 902872,
      "componentType": 5126,
      "count": 65532,
      "max": [
        0.9995065927505493,
        1.0
      ],
      "min": [
        5.551115123125783e-17,
        0.0
      ],
      "type": "VEC2"
    },
    {
      "bufferView": 0,
      "byteOffset": 1223904,
      "componentType": 5125,
      "count": 177912,
      "type": "SCALAR"
    },
    {
      "bufferView": 2,
      "byteOffset": 4281384,
      "componentType": 5126,
      "count": 39087,
      "max": [
        105.46186828613281,
        109.7086410522461,
        115.6689453125
      ],
      "min": [
        -106.81755828857422,
        -99.7832260131836,
        -136.04861450195313
      ],
      "type": "VEC3"
    },
    {
      "bufferView": 2,
      "byteOffset": 4750428,
      "componentType": 5126,
      "count": 39087,
      "max": [
        0.9998661875724792,
        0.9999050498008728,
        0.999984860420227
      ],
      "min": [
        -0.9998685717582703,
        -0.9997797012329102,
        -0.9999700784683228
      ],
      "type": "VEC3"
    },
    {
      "bufferView": 3,
      "byteOffset": 2854256,
      "componentType": 5126,
      "count": 39087,
      "max": [
        0.9999997019767761,
        0.9999946355819702,
        0.999474287033081,
        1.0
      ],
      "min": [
        -0.9999915361404419,
        -0.9999808669090271,
        -0.9975440502166748,
        -1.0
      ],
      "type": "VEC4"
    },
    {
      "bufferView": 1,
      "byteOffset": 1427128,
      "componentType": 5126,
      "count": 39087,
      "max": [
        0.9970787167549133,
        0.981270432472229
      ],
      "min": [
        5.551115123125783e-17,
        0.01743018627166748
      ],
      "type": "VEC2"
    },
    {
      "bufferView": 0,
      "byteOffset": 1935552,
      "componentType": 5125,
      "count": 106560,
      "type": "SCALAR"
    }
  ],
  "asset": {
    "extras": {
      "author": "Mehdi Shahsavan (https://sketchfab.com/ahmagh2e)",
      "license": "CC-BY-4.0 (http://creativecommons.org/licenses/by/4.0/)",
      "source": "https://sketchfab.com/3d-models/metal-barrier-tank-17-mb-b0d6e00b47704741a4efe00b0d7b5e13",
      "title": "Metal Barrier_tank_17_MB"
    },
    "generator": "Sketchfab-16.59.0",
    "version": "2.0"
  },
  "bufferViews": [
    {
      "buffer": 0,
      "byteLength": 2361792,
      "name": "floatBufferViews",
      "target": 34963
    },
    {
      "buffer": 0,
      "byteLength": 1739824,
      "byteOffset": 2361792,
      "byteStride": 8,
      "name": "floatBufferViews",
      "target": 34962
    },
    {
      "buffer": 0,
      "byteLength": 5219472,
      "byteOffset": 4101616,
      "byteStride": 12,
      "name": "floatBufferViews",
      "target": 34962
    },
    {
      "buffer": 0,
      "byteLength": 3479648,
      "byteOffset": 9321088,
      "byteStride": 16,
      "name": "floatBufferViews",
      "target": 34962
    }
  ],
  "buffers": [
    {
      "byteLength": 12800736,
      "uri": "scene.bin"
    }
  ],
  "images": [
    {
      "uri": "textures/material_baseColor.png"
    },
    {
      "uri": "textures/material_metallicRoughness.png"
    },
    {
      "uri": "textures/material_normal.png"
    },
    {
      "uri": "textures/material_1_baseColor.png"
    },
    {
      "uri": "textures/material_1_metallicRoughness.png"
    },
    {
      "uri": "textures/material_1_normal.png"
    }
  ],
  "materials": [
    {
      "doubleSided": true,
      "name": "material",
      "normalTexture": {
        "index": 2
      },
      "pbrMetallicRoughness": {
        "baseColorTexture": {
          "index": 0
        },
        "metallicRoughnessTexture": {
          "index": 1
        }
      }
    },
    {
      "doubleSided": true,
      "name": "material_1",
      "normalTexture": {
        "index": 5
      },
      "pbrMetallicRoughness": {
        "baseColorTexture": {
          "index": 3
        },
        "metallicRoughnessTexture": {
          "index": 4
        }
      }
    }
  ],
  "meshes": [
    {
      "name": "01_1_01_0",
      "primitives": [
        {
          "attributes": {
            "NORMAL": 1,
            "POSITION": 0,
            "TANGENT": 2,
            "TEXCOORD_0": 3
          },
          "indices": 4,
          "material": 0,
          "mode": 4
        }
      ]
    },
    {
      "name": "01_1_02_0",
      "primitives": [
        {
          "attributes": {
            "NORMAL": 6,
            "POSITION": 5,
            "TANGENT": 7,
            "TEXCOORD_0": 8
          },
          "indices": 9,
          "material": 1,
          "mode": 4
        }
      ]
    },
    {
      "name": "01_1_02_0",
      "primitives": [
        {
          "attributes": {
            "NORMAL": 11,
            "POSITION": 10,
            "TANGENT": 12,
            "TEXCOORD_0": 13
          },
          "indices": 14,
          "material": 1,
          "mode": 4
        }
      ]
    },
    {
      "name": "01_2_01_0",
      "primitives": [
        {
          "attributes": {
            "NORMAL": 16,
            "POSITION": 15,
            "TANGENT": 17,
            "TEXCOORD_0": 18
          },
          "indices": 19,
          "material": 0,
          "mode": 4
        }
      ]
    },
    {
      "name": "01_3_01_0",
      "primitives": [
        {
          "attributes": {
            "NORMAL": 21,
            "POSITION": 20,
            "TANGENT": 22,
            "TEXCOORD_0": 23
          },
          "indices": 24,
          "material": 0,
          "mode": 4
        }
      ]
    },
    {
      "name": "01_01_0",
      "primitives": [
        {
          "attributes": {
            "NORMAL": 26,
            "POSITION": 25,
            "TANGENT": 27,
            "TEXCOORD_0": 28
          },
          "indices": 29,
          "material": 0,
          "mode": 4
        }
      ]
    },
    {
      "name": "01_02_0",
      "primitives": [
        {
          "attributes": {
            "NORMAL": 31,
            "POSITION": 30,
            "TANGENT": 32,
            "TEXCOORD_0": 33
          },
          "indices": 34,
          "material": 1,
          "mode": 4
        }
      ]
    },
    {
      "name": "01_02_0",
      "primitives": [
        {
          "attributes": {
            "NORMAL": 36,
            "POSITION": 35,
            "TANGENT": 37,
            "TEXCOORD_0": 38
          },
          "indices": 39,
          "material": 1,
          "mode": 4
        }
      ]
    }
  ],
  "nodes": [
    {
      "children": [
        1
      ],
      "matrix": [
        1.0,
        0.0,
        0.0,
        0.0,
        0.0,
        2.220446049250313e-16,
        -1.0,
        0.0,
        0.0,
        1.0,
        2.220446049250313e-16,
        0.0,
        0.0,
        0.0,
        0.0,
        1.0
      ],
      "name": "Sketchfab_model"
    },
    {
      "children": [
        2
      ],
      "matrix": [
        0.009999999776482582,
        0.0,
        0.0,
        0.0,
        0.0,
        0.0,
        0.009999999776482582,
        0.0,
        0.0,
        -0.009999999776482582,
        0.0,
        0.0,
        0.0,
        0.0,
        0.0,
        1.0
      ],
      "name": "704ed4e471e34746a6f4ccd63c1dd818.fbx"
    },
    {
      "children": [
        3,
        5,
        9,
        11,
        13
      ],
      "name": "RootNode"
    },
    {
      "children": [
        4
      ],
      "matrix": [
        -0.07766127913162424,
        -0.4832245417440225,
        0.8720451639565001,
        0.0,
        -0.0428646350497508,
        0.8754964547365566,
        0.4813196243721756,
        0.0,
        -0.9960579043337248,
        4.996003610813204e-16,
        -0.0887054181789837,
        0.0,
        233.78765869140625,
        787.3319091796875,
        -1562.4866943359375,
        1.0
      ],
      "name": "CINEMA_4D_Editor"
    },
    {
      "name": "Object_4"
    },
    {
      "children": [
        6,
        7,
        8
      ],
      "matrix": [
        -0.4219167371321957,
        5.1669898163563875e-17,
        -0.9066345829096316,
        0.0,
        2.334953939103929e-16,
        1.0,
        -5.1669898163563875e-17,
        0.0,
        0.9066345829096316,
        -2.334953939103929e-16,
        -0.4219167371321957,
        0.0,
        3.320631265640259,
        114.04149627685547,
        188.43638610839844,
        1.0
      ],
      "name": "01_1"
    },
    {
      "mesh": 0,
      "name": "01_1_01_0"
    },
    {
      "mesh": 1,
      "name": "01_1_02_0"
    },
    {
      "mesh": 2,
      "name": "01_1_02_0"
    },
    {
      "children": [
        10
      ],
      "matrix": [
        -0.4219167371321957,
        5.1669898163563875e-17,
        -0.9066345829096316,
        0.0,
        2.334953939103929e-16,
        1.0,
        -5.1669898163563875e-17,
        0.0,
        0.9066345829096316,
        -2.334953939103929e-16,
        -0.4219167371321957,
        0.0,
        3.320631265640259,
        114.04149627685547,
        188.43638610839844,
        1.0
      ],
      "name": "01_2"
    },
    {
      "mesh": 3,
      "name": "01_2_01_0"
    },
    {
      "children": [
        12
      ],
      "matrix": [
        -0.4219167371321957,
        5.1669898163563875e-17,
        -0.9066345829096316,
        0.0,
        2.334953939103929e-16,
        1.0,
        -5.1669898163563875e-17,
        0.0,
        0.9066345829096316,
        -2.334953939103929e-16,
        -0.4219167371321957,
        0.0,
        3.320631265640259,
        114.04149627685547,
        188.43638610839844,
        1.0
      ],
      "name": "01_3"
    },
    {
      "mesh": 4,
      "name": "01_3_01_0"
    },
    {
      "children": [
        14,
        15,
        16
      ],
      "matrix": [
        1.0,
        0.0,
        0.0,
        0.0,
        0.0,
        1.0,
        0.0,
        0.0,
        0.0,
        0.0,
        1.0,
        0.0,
        3.320631265640259,
        114.04149627685547,
        -120.1709213256836,
        1.0
      ],
      "name": "01"
    },
    {
      "mesh": 5,
      "name": "01_01_0"
    },
    {
      "mesh": 6,
      "name": "01_02_0"
    },
    {
      "mesh": 7,
      "name": "01_02_0"
    }
  ],
  "samplers": [
    {
      "magFilter": 9729,
      "minFilter": 9987,
      "wrapS": 10497,
      "wrapT": 10497
    }
  ],
  "scene": 0,
  "scenes": [
    {
      "name": "Sketchfab_Scene",
      "nodes": [
        0
      ]
    }
  ],
  "textures": [
    {
      "sampler": 0,
      "source": 0
    },
    {
      "sampler": 0,
      "source": 1
    },
    {
      "sampler": 0,
      "source": 2
    },
    {
      "sampler": 0,
      "source": 3
    },
    {
      "sampler": 0,
      "source": 4
    },
    {
      "sampler": 0,
      "source": 5
    }
  ]
}
